<svg xmlns="http://www.w3.org/2000/svg" xmlns:xlink="http://www.w3.org/1999/xlink" width="22" height="22" viewBox="0 0 22 22"><defs><style>.a,.c{fill:#909399;}.a{stroke:#707070;}.b{clip-path:url(#a);}</style><clipPath id="a"><rect class="a" width="22" height="22" transform="translate(98 790)"/></clipPath></defs><g class="b" transform="translate(-98 -790)"><path class="c" d="M-1504.2,12.869l-5.233-5.233a.8.8,0,0,1-.234-.566.8.8,0,0,1,.234-.566l5.233-5.233a.8.8,0,0,1,1.131,0,.8.8,0,0,1,0,1.131l-3.867,3.867h10.623a.8.8,0,0,1,.8.8.8.8,0,0,1-.8.8h-10.622l3.866,3.866a.8.8,0,0,1,0,1.131.8.8,0,0,1-.566.234A.8.8,0,0,1-1504.2,12.869Z" transform="translate(1611.515 793.929)"/></g></svg>