<svg xmlns="http://www.w3.org/2000/svg" width="38" height="38" viewBox="0 0 38 38"><defs><style>.a{fill:#feb338;}.b{fill:#fff;}</style></defs><path class="a" d="M24,5C38.241,5,43,9.759,43,24S38.241,43,24,43,5,38.241,5,24,9.759,5,24,5Z" transform="translate(-5 -5)"/><path class="b" d="M-6455-7239a4,4,0,0,1-4-4v-10a4,4,0,0,1,4-4h12a4,4,0,0,1,4,4v10a4,4,0,0,1-4,4Zm-2.2-14v10a2.2,2.2,0,0,0,2.2,2.2h12a2.2,2.2,0,0,0,2.2-2.2v-1h-2.2a4,4,0,0,1-4-4,4,4,0,0,1,4-4h2.2v-1a2.2,2.2,0,0,0-2.2-2.2h-12A2.2,2.2,0,0,0-6457.2-7253Zm12,5a2.2,2.2,0,0,0,2.2,2.2h2.2v-4.4h-2.2A2.2,2.2,0,0,0-6445.2-7248Z" transform="translate(6468 7267)"/></svg>