<svg xmlns="http://www.w3.org/2000/svg" xmlns:xlink="http://www.w3.org/1999/xlink" width="16" height="16" viewBox="0 0 16 16"><defs><style>.a{fill:#606266;}.b{clip-path:url(#a);}</style><clipPath id="a"><rect class="a" width="16" height="16" transform="translate(1074 114)"/></clipPath></defs><g class="b" transform="translate(-1074 -114)"><g transform="translate(1074.615 114)"><path class="a" d="M12.333,16.667a3.9,3.9,0,1,1,3.9-3.9A3.922,3.922,0,0,1,12.333,16.667Zm0-6.564A2.667,2.667,0,1,0,15,12.769,2.661,2.661,0,0,0,12.333,10.1Zm-.369-4.718H4.538a.615.615,0,0,1,0-1.231h7.426a.615.615,0,1,1,0,1.231Z" transform="translate(-1.462 -0.667)"/><path class="a" d="M7.718,16.231H3.41a2.276,2.276,0,0,1-2.256-2.256V2.487A2.276,2.276,0,0,1,3.41.231h9.026a2.276,2.276,0,0,1,2.256,2.256V7.164a.615.615,0,1,1-1.231,0V2.487a1.016,1.016,0,0,0-1.026-1.026H3.41A1.016,1.016,0,0,0,2.385,2.487V13.974A1.016,1.016,0,0,0,3.41,15H7.718a.615.615,0,1,1,0,1.231Zm4.923-2.256a.617.617,0,0,1-.451-.164l-.615-.615a.609.609,0,0,1,.862-.862l.615.615a.6.6,0,0,1,0,.862.476.476,0,0,1-.41.164Z" transform="translate(-1.154 -0.231)"/><path class="a" d="M12.154,14a.631.631,0,0,1-.615-.615V11.744a.615.615,0,1,1,1.231,0v1.641A.631.631,0,0,1,12.154,14Zm-4.1-4.923H4.769a.615.615,0,1,1,0-1.231H8.051a.615.615,0,0,1,0,1.231Z" transform="translate(-1.487 -1.077)"/></g></g></svg>