<svg xmlns="http://www.w3.org/2000/svg" xmlns:xlink="http://www.w3.org/1999/xlink" width="30" height="30" viewBox="0 0 30 30"><defs><style>.a{fill:#fff;}.b{clip-path:url(#a);}</style><clipPath id="a"><rect class="a" width="30" height="30" transform="translate(889 551)"/></clipPath></defs><g class="b" transform="translate(-889 -551)"><path class="a" d="M-5765-6190h-18a5.006,5.006,0,0,1-5-5v-14a5.006,5.006,0,0,1,5-5h18a5.006,5.006,0,0,1,5,5v14A5.006,5.006,0,0,1-5765-6190Zm-18.5-18.5a1.5,1.5,0,0,0-1.5,1.5,1.5,1.5,0,0,0,1.5,1.5h19a1.5,1.5,0,0,0,1.5-1.5,1.5,1.5,0,0,0-1.5-1.5Z" transform="translate(6678 6768)"/></g></svg>