<svg xmlns="http://www.w3.org/2000/svg" xmlns:xlink="http://www.w3.org/1999/xlink" fill="none" version="1.1" width="18.000011444091797" height="20.000011444091797" viewBox="0 0 18.000011444091797 20.000011444091797"><path d="M3.382,1.96801C4.97574,0.691076,6.9578,-0.00324559,9,0.0000115633C11.125,0.0000115633,13.078,0.736012,14.618,1.96801L16.071,0.515011L17.485,1.92901L16.032,3.38201C17.3089,4.97575,18.0033,6.95782,18,9.00001L18,10L0,10L0,9.00001C0,6.87501,0.736,4.92201,1.968,3.38201L0.515,1.93001L1.929,0.516012L3.382,1.96901L3.382,1.96801ZM0,12L18,12L18,19C18,19.5523,17.5523,20,17,20L1,20C0.447715,20,0,19.5523,0,19L0,12ZM6,7.00001C6.55229,7.00001,7,6.5523,7,6.00001C7,5.44773,6.55229,5.00001,6,5.00001C5.44771,5.00001,5,5.44773,5,6.00001C5,6.5523,5.44771,7.00001,6,7.00001ZM12,7.00001C12.5523,7.00001,13,6.5523,13,6.00001C13,5.44773,12.5523,5.00001,12,5.00001C11.4477,5.00001,11,5.44773,11,6.00001C11,6.5523,11.4477,7.00001,12,7.00001Z" fill="#FFFFFF" fill-opacity="1"/></svg>