<svg xmlns="http://www.w3.org/2000/svg" width="330.098" height="44.026" viewBox="0 0 330.098 44.026"><defs><style>.a{fill:#ec5aff;}.b{fill:#ffdf5a;}.c{fill:#ff7a5a;}.c,.e{opacity:0.5;}.d,.e{fill:#2eeaea;}</style></defs><g transform="translate(24.5 6.885)"><path class="a" d="M15394.607,4321.162s-2.5,1.11-4.582,5l2.49.758a15.144,15.144,0,0,1,5.643-4.418Z" transform="translate(-15179.289 -4325.092)"/><path class="b" d="M15394.506,4321.162s.655,3.155,5.783,6.745l-3.142,1.022s-4.978-1.728-7.122-5.961Z" transform="translate(-15336.259 -4328.046)"/><path class="c" d="M2.859,0s.418,2.013,3.691,4.3l-2.006.653A8.883,8.883,0,0,1,0,1.153Z" transform="matrix(0.966, -0.259, 0.259, 0.966, -20, 3.512)"/><path class="b" d="M3.385,0s.5,2.383,4.367,5.1l-2.373.772A10.513,10.513,0,0,1,0,1.365Z" transform="matrix(0.559, -0.829, 0.829, 0.559, 256.443, 26.206)"/><path class="d" d="M1.5.036C-.945.5.334,3.8.334,3.8a46.971,46.971,0,0,1,7.3,0S3.95-.429,1.5.036Z" transform="matrix(0.985, -0.174, 0.174, 0.985, 24.048, 29.377)"/><path class="e" d="M1.5.036C-.945.5.334,3.8.334,3.8a46.971,46.971,0,0,1,7.3,0S3.95-.429,1.5.036Z" transform="translate(300 1.788) rotate(120)"/></g></svg>