<svg xmlns="http://www.w3.org/2000/svg" xmlns:xlink="http://www.w3.org/1999/xlink" width="30" height="30" viewBox="0 0 30 30"><defs><style>.a{fill:#fff;}.b{clip-path:url(#a);}</style><clipPath id="a"><rect class="a" width="30" height="30" transform="translate(889 551)"/></clipPath></defs><g class="b" transform="translate(-889 -551)"><path class="a" d="M18,17.725a14.516,14.516,0,0,0,1.5-3.254,14.531,14.531,0,0,0,.915-3.359H14.239V9h7.5V7.5h-7.5V3.974H10.61V7.333H3.517v1.5l6.988-.045v2.279H4.912v1.185H16.5a10.5,10.5,0,0,1-.54,2.159L15,16.646c-.315.735-5.414-1.889-8.293-1.889S.368,15.941.053,19.255a5.1,5.1,0,0,0,4.379,5.788,10.977,10.977,0,0,0,7.5-1.08,17.47,17.47,0,0,0,4.394-3.524l11.487,5.578s.7-1.08,1.245-2.114A22.749,22.749,0,0,0,30,21.744l-12-4ZM6.216,23.2c-4.064,0-4.874-1.994-4.874-3.4s.87-3,4.274-3.194,8.068,2.444,8.068,2.444-3.419,4.169-7.5,4.169Zm0,0" transform="translate(889 551.004)"/></g></svg>