<svg xmlns="http://www.w3.org/2000/svg" xmlns:xlink="http://www.w3.org/1999/xlink" width="80" height="80" viewBox="0 0 80 80"><defs><style>.a,.d{fill:#fff;}.a{opacity:0;}.b{fill:url(#a);}.c{fill:#eb0bd1;}</style><linearGradient id="a" x1="0.5" x2="0.5" y2="1" gradientUnits="objectBoundingBox"><stop offset="0" stop-color="#ffc86e"/><stop offset="1" stop-color="#feb338"/></linearGradient></defs><g transform="translate(-1033 -1405)"><rect class="a" width="80" height="80" transform="translate(1033 1405)"/><g transform="translate(-1.006 -1.006)"><path class="b" d="M4.441,58.464,1.367,54.775l-.008-.01L0,53.134H10.418L9.055,54.77l0,0L7.814,56.26h0l-1.836,2.2a1,1,0,0,1-1.537,0ZM0,53.134V2A2,2,0,0,1,2,0H8.419a2,2,0,0,1,2,2V53.134Z" transform="translate(1090.578 1421) rotate(45)"/><g transform="translate(1049 1431.314) rotate(-45)"><rect class="c" width="14.586" height="56.26" rx="2" transform="translate(0 0)"/><path class="d" d="M.5,35.423a.5.5,0,0,1-.5-.5V33.839a.5.5,0,0,1,.5-.5H5.209v2.083Zm0-8.335a.5.5,0,0,1-.5-.5V25.5A.5.5,0,0,1,.5,25H5.209v2.084Zm0-8.335a.5.5,0,0,1-.5-.5V17.17a.5.5,0,0,1,.5-.5H5.209v2.083Zm0-8.335a.5.5,0,0,1-.5-.5V8.835a.5.5,0,0,1,.5-.5H5.209v2.083Zm0-8.334a.5.5,0,0,1-.5-.5V.5A.5.5,0,0,1,.5,0H5.209V2.084Z" transform="translate(9.377 10.418)"/></g></g></g></svg>