<svg xmlns="http://www.w3.org/2000/svg" xmlns:xlink="http://www.w3.org/1999/xlink" width="80" height="80" viewBox="0 0 80 80"><defs><style>.a,.d{fill:#fff;}.a{opacity:0;}.b{fill:#eb0bd1;}.c{fill:url(#a);}</style><linearGradient id="a" x1="0.5" x2="0.5" y2="1" gradientUnits="objectBoundingBox"><stop offset="0" stop-color="#ffc86e"/><stop offset="1" stop-color="#feb338"/></linearGradient></defs><g transform="translate(-773 -1405)"><rect class="a" width="80" height="80" transform="translate(773 1405)"/><path class="b" d="M2,0H48a2,2,0,0,1,2,2V18a6,6,0,0,1-6,6H6a6,6,0,0,1-6-6V2A2,2,0,0,1,2,0Z" transform="translate(788 1421)"/><path class="c" d="M11,69a1,1,0,0,1-1-1V67a3,3,0,0,1,3-3h3V53.89A18,18,0,0,1,.027,37H0V15a3,3,0,0,1,3-3H33a3,3,0,0,1,3,3V37h-.027A18,18,0,0,1,20,53.89V64h3a3,3,0,0,1,3,3v1a1,1,0,0,1-1,1Z" transform="translate(795 1405)"/><path class="d" d="M8.221.969a1,1,0,0,1,1.559,0l2.649,3.294a1,1,0,0,0,.429.31l3.963,1.48a1,1,0,0,1,.483,1.49l-2.326,3.5a1,1,0,0,0-.166.507l-.193,4.2a1,1,0,0,1-1.263.919L9.264,15.552a1,1,0,0,0-.527,0L4.643,16.67a1,1,0,0,1-1.263-.919l-.193-4.2a1,1,0,0,0-.166-.507L.7,7.543a1,1,0,0,1,.483-1.49l3.963-1.48a1,1,0,0,0,.429-.31Z" transform="translate(804 1427)"/></g></svg>