<svg xmlns="http://www.w3.org/2000/svg" xmlns:xlink="http://www.w3.org/1999/xlink" width="80" height="80" viewBox="0 0 80 80"><defs><style>.a{fill:#fff;opacity:0;}.b{fill:#eb0bd1;}.c{fill:url(#a);}</style><linearGradient id="a" x1="0.5" x2="0.5" y2="1" gradientUnits="objectBoundingBox"><stop offset="0" stop-color="#ffc86e"/><stop offset="1" stop-color="#feb338"/></linearGradient></defs><g transform="translate(-513 -1405)"><rect class="a" width="80" height="80" transform="translate(513 1405)"/><g transform="translate(-6.1 -4.063)"><path class="b" d="M22.072,50.419H3a3,3,0,0,1-3-3v-34.2L6.278,5.777h.016L10.26,1.069a3,3,0,0,1,4.589,0L18.8,5.762h.009l6.257,7.429-6.039.009c-.107.013-.215.021-.321.023h6.362v34.2A3,3,0,0,1,22.072,50.419ZM12.538,11.972a2.48,2.48,0,1,0,2.507,2.479A2.5,2.5,0,0,0,12.538,11.972ZM6.246,13.217l-5.552.007H6.4l-.078,0Z" transform="translate(548.044 1421.086) rotate(20)"/><path class="c" d="M22.071,50.419H3a3,3,0,0,1-3-3V13.225l3.961-4.7c.055-.078.114-.155.176-.229l6.085-7.222a3,3,0,0,1,4.588,0L20.9,8.291c.049.058.095.115.139.176l4.009,4.757h.028v34.2A3,3,0,0,1,22.071,50.419ZM12.533,12a2.48,2.48,0,1,0,2.507,2.479A2.5,2.5,0,0,0,12.533,12Z" transform="translate(546.611 1429.636) rotate(-20)"/></g></g></svg>