<svg xmlns="http://www.w3.org/2000/svg" width="80" height="80" viewBox="0 0 80 80"><defs><style>.a{fill:#fff;opacity:0;}.b{fill:#feb338;}.c{fill:#eb0bd1;}</style></defs><g transform="translate(-253 -1405)"><rect class="a" width="80" height="80" transform="translate(253 1405)"/><path class="b" d="M245.488,375H184.2a1,1,0,0,0-.888,1.181c1.086,10.395,16.357,15.77,24.132,17.845.765.2.955.923.442,1.617-2.454,3.325-7.466,4.077-8.645,6.054a.8.8,0,0,0,.571,1.231h30.062a.8.8,0,0,0,.571-1.231c-1.179-1.977-6.191-2.729-8.645-6.054-.513-.695-.323-1.413.442-1.617,7.774-2.075,23.046-7.45,24.131-17.845A1,1,0,0,0,245.488,375Z" transform="translate(78.219 1077.361)"/><path class="c" d="M41.03,8.233H12.273V1.514A1.484,1.484,0,0,0,10.82,0H7.165A2.371,2.371,0,0,0,5.423.773L.851,5.726A3.247,3.247,0,0,0,0,7.927V23.265a1.484,1.484,0,0,0,1.453,1.514H10.82a1.484,1.484,0,0,0,1.453-1.514v-6.08H41.03A1.5,1.5,0,0,0,42.5,15.658V9.76A1.5,1.5,0,0,0,41.03,8.233Z" transform="translate(283.142 1410.869) rotate(30)"/></g></svg>