<?xml version="1.0" standalone="no"?><!DOCTYPE svg PUBLIC "-//W3C//DTD SVG 1.1//EN" "http://www.w3.org/Graphics/SVG/1.1/DTD/svg11.dtd"><svg t="1642060799753" class="icon" viewBox="0 0 1205 1024" version="1.1" xmlns="http://www.w3.org/2000/svg" p-id="1743" xmlns:xlink="http://www.w3.org/1999/xlink" width="235.3515625" height="200"><defs><style type="text/css"></style></defs><path d="M1052.351 365.613a72.934 72.934 0 0 0-2.466-3.942l-2.34-4.336-1.157-2.147-5.644-10.484-0.177 0.1c-2.851-4.528-4-4.528-7.212-4.528h-1.695c-12.32-11.415-29.933-22.612-51.647-22.612 0 0-718.467 0.285-746.286 0.285-29.338 0-51.715 13.671-70.435 43.026l-3.338 5.225C59.99 522.08 9.314 616.2 9.314 645.916v286.023c0 49.14 40.208 89.12 89.641 89.12H1114.5c49.425 0 89.632-39.98 89.632-89.12V645.916c-0.008-42.095-116.026-224.949-151.78-280.303zM729.694 654.83c0.075 1.107 0.16 2.214 0.16 3.338 0 68.204-55.481 123.684-123.676 123.684s-123.684-55.48-123.684-123.684c0-1.728 0.126-3.422 0.235-5.116l0.243-3.95-0.57-1.594c-11.222-31.569-44.049-32.047-45.474-32.055H102.193l111.354-205.197c0.185-0.336 19.081-33.565 43.487-33.565l704.955 0.025c18.636 0 21.412 4.546 36.811 29.774l115.49 208.971-337.755 0.017c-22.787 0-39.763 12.405-46.59 34.052l-0.444 1.417 0.193 3.883zM346.65 220.241a32.29 32.29 0 0 0 22.318 8.906 32.533 32.533 0 0 0 23.517-10.106 32.231 32.231 0 0 0 8.898-23.165 32.206 32.206 0 0 0-10.09-22.67l-89.766-85.187a32.29 32.29 0 0 0-22.317-8.907 32.533 32.533 0 0 0-23.518 10.106 32.458 32.458 0 0 0 1.191 45.827l89.767 85.195z m247.333-37.642a32.24 32.24 0 0 0 22.301 8.907l0.873-0.008a32.475 32.475 0 0 0 31.568-33.255l-3.229-123.725A32.265 32.265 0 0 0 613.09 2.94l-0.864 0.017a32.458 32.458 0 0 0-31.56 33.254l3.22 123.717a32.257 32.257 0 0 0 10.098 22.67z m22.301 0.462v0.058-0.058z m232.757 41.633a32.609 32.609 0 0 0 23.526-10.098l85.187-89.767a32.441 32.441 0 0 0-1.191-45.826 32.282 32.282 0 0 0-22.318-8.907 32.575 32.575 0 0 0-23.517 10.098l-85.204 89.766a32.24 32.24 0 0 0-8.899 23.165 32.206 32.206 0 0 0 10.09 22.67 32.315 32.315 0 0 0 22.326 8.899z" fill="#CCCCCC" p-id="1744"></path></svg>